<?xml version="1.0" encoding="UTF-8"?>
<svg id="Calque_1" xmlns="http://www.w3.org/2000/svg" xmlns:xlink="http://www.w3.org/1999/xlink" version="1.1" viewBox="0 0 1440 718.7">
  <!-- Generator: Adobe Illustrator 29.6.1, SVG Export Plug-In . SVG Version: 2.1.1 Build 9)  -->
  <defs>
    <style>
      .st0 {
        fill: none;
      }

      .st1 {
        fill: #2e65ad;
      }

      .st2 {
        fill: #3e9660;
      }

      .st3 {
        fill: #2d64ad;
      }

      .st4 {
        fill: #003d2e;
      }

      .st5 {
        clip-path: url(#clippath);
      }
    </style>
    <clipPath id="clippath">
      <rect class="st0" x=".2" y=".7" width="1440" height="717.3"/>
    </clipPath>
  </defs>
  <rect class="st4" x="-1" y=".7" width="1442" height="720"/>
  <g class="st5">
    <g>
      <path class="st1" d="M140.3,536c.1.2.2.5.3.8l-1.1,1.5c.2-.7.5-1.5.8-2.2h0ZM92.5,708.6h0Z"/>
      <path class="st1" d="M31,751c0-1.7.1-3.4-.2-5.1-.1-.5-.2-1-.4-1.5-.5-2.1.3-4.4.4-6.6h0c.5-4.1.8-8,1.1-12,.1-.9-.1-2-.5-3-.6-1.5-1.7-2.8-3.3-3.3,1-1.5-.2-4.4-2.4-3.6-2.1.6-1.7,3.1-1.9,4.7-1.1,1.1-1.5,2.6-1.6,4-.3,3-.6,6-.9,9-.2.8-.4,1.5-.7,2.3-1.5,4-3.6,7.7-4,12-.4,3.3-.2,6.7-.6,10h16.3c0-.6-.2-1.2-.4-1.8-.3-1.8-.6-3.6-1-5.3h0s0,0,0,0Z"/>
      <path class="st2" d="M1273.7,372c.3.1.3.3,0,.5v-.5Z"/>
      <g>
        <path class="st3" d="M477.7,357.1c.4-.2.4-.5,0-.6v.6Z"/>
        <path class="st3" d="M725.8,711.6l-2.1-12-1.7-9.4-3.4-16.3-2.6-9.4s1.3-.5-1.3-9c-2.6-8.6-.5-2.1-2.6-8.6l-2.1-6.4-3-5.6-4.9-5.7c-9.3-13.5-22.1-24-32.1-36.8-12.9-16.4-19.5-34.4-41.8-40.7-19-5.5-47.7-12.5-67.1-12.2-18.9.4-37.9,6.6-56.5.7-9.2-2.9-17.7-9-26.8-12.2-23.5-8.4-51.8-1.7-76.5-3.4-19.3-1.4-37.9-11.6-56.5-13-40.5-3.1-76.1,24.4-118,10.2-.7-.3-1.9-.1-1.8-1.1,18.4-4.7,38.1-8.4,55.9-15.3,12-4.7,22.1-11,35.4-12,3.6-.3,7.5.3,11,0,11.6-.8,22.1-7,33.8-7.8,21.8-1.6,40.2,6,61,7.1,30.1,1.6,57.7-12,88.7-2.9,13.5,3.9,25.1,13.5,38.3,18.2,28.5,9.9,71.7,2.4,97.8-11.9,12.5-6.9,22.9-16.8,35.1-24,6.5-3.9,13.5-6.9,20.3-10.3h0c66.1-100.9,0-217.8,0-217.8-26.1-4.2-53.5-8.1-77.7,5.1-17.7,9.6-27.9,27.3-45.7,37.5-12.7,7.3-25.3,11.2-36.7,21.1-11.6,10.1-17,24-28,33.7-21.2,18.6-48.3,18.4-72.2,31.1-27.5,14.7-44.9,44.9-72.4,56.9-9.9,4.4-20.8,6.2-30.4,11.2-14.5,7.4-24.5,21-38.8,29.4-9.8,5.8-20.7,9.4-30.7,14.8-11.4,6.1-21.6,14.4-34.4,17.9-.3-1.2.7-1.6,1.3-2.3,6.6-8,15.9-18.8,23.1-26.3,8.8-9.3,18.7-12.8,28.3-20.5,10.4-8.2,17.3-20,28-27.9,11.5-8.6,26.2-11,38.5-19.4,18-12.1,30-31.6,48.3-42.6,15.6-9.4,33.9-11.1,50.1-21.3,20.9-13.1,30.5-33.4,53.7-44.4,10.1-4.7,18.8-7.3,28.4-13.8,16-11,24.3-25.9,38.1-38.5,19.8-18.1,38.5-30.1,47.6-57.6,12.7-38.1-23.8-41.9-46.2-58.7-11.8-8.8-20.3-22-31.2-31.8-15.5-14-32.9-19.9-47.7-35.4-12.7-13.2-17.5-19.2-34.5-27.9-27.7-14.1-53.7-23.3-77.9,2.5-12.5,13.4-29.2,31.4-36.4,48.1-3.6,8.6-5.9,17.7-10.2,26.2-4.4,8.7-10.9,16.2-15.6,24.7-7.5,13.3-10.9,27.4-16.5,41.3-5.8,14.4-13.1,26.4-16.4,42.1-2.3,10.9-2.5,22-5.7,32.6-3.6,12-11.6,22-15.7,33.6-9.4,26.4-6,60.5-8,88.1-1.3,18.2-10,35-11.7,53.3-.3,2.7.3,5.7,0,8.4-2.1,21.3-9.9,43.1-26.3,57.5,2.5-17.7,10.8-34.3,12-52.3.8-10.9-1.2-21.7-.6-32.5.4-8,2.7-16,3.2-24,1.2-16.4-3.6-31.6-3.2-47.4.4-22.6,11.8-44.2,13-67.6,1.1-20.1-4.1-39.8-2.5-59.7,1-12.8,5.9-25.7,7.6-38.5,1.2-8.8,1-17.7,2.1-26.4,5.1-41.8,32.5-67.8,42-107.4,5.4-22.6,5.6-42.9-2.5-65-144.9-45.2-227-.1-227-.1l-1.9.7c-7.2,9.2-14.2,19.4-22.7,27.3C26.1,12.4,10.4,18.5,1.1,36.1c-18.4,35,7.9,59.9,6,93.7-1.1,19.2-4.6,30.8-1.8,51.2,4.6,34.6,14,44.9,32.9,71.7,17,24.1,25.4,57.8,45.6,79.1,5.8,6.2,13.4,10.5,19.5,16.2,12.1,11.4,17.7,29.2,27.4,42.7,8.1,11.2,19.2,19.8,26.4,31.4,4.1,6.6,6.7,14,10.4,20.8,4.6,8.2,10.6,14.6,14.1,23.6,3.9,10.1,5,21.2,7.5,31.8-3.7-3.9-8.8-7.5-12.3-11.3-6-6.5-9.8-14.7-16.8-20.9-5.5-4.7-11.8-7.1-17.6-11-16.2-10.9-19.9-30-32.3-44.3-15.5-17.8-33.9-18.2-43.4-43-6.5-17.1-7.9-32.4-18.3-48.6-13.6-20.9-31.6-27.6-49.7-42.5-.9-.7-7.9-8.1-8.8-7.1v315.1l19.7-12.5c24.5-13.6,55.4-15.9,77.4-34.4,8.2-6.8,20-26.4,31.2-26,3.4.1,7.7,1.2,11,1.4,18,.9,30-5.9,48.4,2.3.7.3,1.7,0,1.3,1.2-.2.7-13.1,3.6-14.8,4-14.4,3-22.5,2.6-36.1,10.1-13.2,7.3-27,14.8-39.9,22.5-16.9,10-19.8,17.6-31.7,31.3-16.4,18.9-39.8,24.8-50.9,49.1-3.4,7.5-5,15.8-8.4,23.4-1.1,2.5-7.3,11.5-7.3,12.2v193.9c1,.2,1.4-.4,2.1-.8,8.7-4.9,16.9-13.5,25.8-19,10.9-6.7,23-9.8,33.7-17,17.9-12,28.8-30.9,42.6-47,6.2-7.3,12.2-12.3,17.5-20.8,9.2-14.6,12.3-29.9,19.1-45.2,5.5-12.5,13.6-22.5,17.3-35.9,4.6-16.6,1.9-33.4,5.1-50.2,2-10.7,6.6-20.6,9.2-31,2.4-9.6,3-19.4,6.2-28.9,4.2-12.7,12.9-24,22.1-33.5,0,11.8-3.1,23.3-5.1,34.8-4.6,25.7-12.6,50.3-15.6,75.9-.8,6.2-.5,13.1-1.4,19.4-2.9,21.5-13.8,38.2-20.2,58.4-4.8,15.3-5.9,31.8-12.1,46.4-6.8,16-18.8,27-27.3,41.6-8.2,14.2-17.3,44.2-18.8,60.5,0,.8-.2,2.7.8,2.7h300.8c.6,0,1-1.5,1-2.3,0-8.7-3.6-24.1-6.7-32.3-11.6-31-41-41.6-52.6-73.4-6.1-16.8-6.7-33-17-48.7-10.5-16-27.5-23.1-36.9-40.4-9.5-17.5-10.9-35.3-22.7-53.3-6.8-10.3-13.4-20.3-20-30.7-5.8-9-13-17-17.5-26.7-4.9-10.7-7.1-22.3-8.5-34,5.7,5.8,12.2,11.1,17.5,17.2,10.1,11.7,15.1,28,25.3,39.6,6.8,7.7,15.3,12,21.7,20.5,9.1,12.2,11.4,27.1,21.8,39.2,8.4,9.7,19.2,13.8,28.2,21.8,16.6,14.8,18.5,38.7,32.1,56.2,11.8,15,27.1,20.3,40.3,32.5,8,7.4,13.1,17.2,20.5,25,20.8,22.3,48.3,15.5,73.1,29.6,18.5,10.5,28,31.2,50,35.8,9.7,2,19.7,1.2,29.5,2.3,9.8,1.1,19.5,4.5,29.3,5.1,42.5,2.9,69.4-27.3,102.3-47.9l18.3-34.1,4.7-17.6.5-11.2,1.7-11.2-.5-10.7-1.3-12.9h.2c0,.1,0,0,0,0Z"/>
      </g>
      <path class="st3" d="M697.7,156l10.1,4.1,7.9,3.2,14,5.1,8.3,2.5s-.3,1.2,7.4,3.3,1.8.7,7.7,2.1l5.9,1.4,5.6.4,6.6-1.1c14.6-.7,28.6-5.4,43-6.9,18.5-2,35.3,1.5,50.6-12.3,13.1-11.8,32-30.1,41-45,8.7-14.5,13-31.8,26.2-43.1,6.5-5.6,15.2-9.2,21.9-14.5,17.5-13.8,25.8-38.3,38.8-56.2,10.2-13.9,26.7-23.2,36.6-36.6,21.5-29.1,17.6-69.1,48.2-94.1.5-.4,1-1.4,1.7-.9-5.2,16.2-11.7,32.8-14.9,49.5-2.1,11.2-2.2,21.9-7.7,32.5-1.5,2.9-3.7,5.5-5.2,8.3-4.9,9.2-5.2,20-10.1,29.2-9.1,17.2-23.6,27.5-34.3,42.8-15.5,22-18.3,49.3-39.8,68.4-9.3,8.4-22.1,12.6-31.9,20.4-21,16.9-35.7,53-37.3,79.6-.7,12.7,1.8,25.2,1.6,37.9-.1,6.8-1.2,13.5-1.8,20.2h0c45,97.8,164.7,103.1,164.7,103.1,15.6-17.8,31.4-36.6,32.9-61.1,1.1-18-7.4-34-6.7-52.3.5-13,3.5-24.4,1.4-37.8-2.1-13.6-10.2-24.2-12.2-37.1-4.1-24.8,9-45.2,10.6-69.3,1.9-27.7-12.7-55.2-8.8-81.7,1.4-9.5,5.1-18.7,5.9-28.3,1.3-14.5-4.2-28.5-3.8-43.3.3-10.2,2.7-20.1,3.4-30.2.8-11.5-.7-23.1,2.8-34.5,1.1.4.8,1.3,1.1,2.1,3,8.8,6.7,20.9,9,29.9,2.9,11,.8,20.2,2.1,31,1.3,11.8,6.9,22.6,7.8,34.4,1,12.8-4,25-3.6,38.2.7,19.4,9.7,37.7,9.3,56.7-.3,16.3-7.7,30.9-7.6,48,0,22,10.8,38.9,8.1,61.6-1.2,9.9-3.4,17.6-3,28,.8,17.4,8.1,30.6,11.1,47.1,4.3,23.5,4.6,43.4,21,63.3,22.8,27.6,43,1.8,66.3-7.2,12.2-4.7,26.2-5,38.8-8.6,18-5.1,30.6-15.5,49.4-19.4,16-3.3,22.8-4.1,37.4-12.9,23.8-14.3,43-29.5,35-60.1-4.2-15.8-9.9-37-19.1-50.3-4.8-6.8-10.6-12.9-15-20.1-4.5-7.4-7.1-15.9-11.3-23.5-6.5-11.9-15.6-21.2-23.4-32-8.2-11.2-13.8-22.4-24.1-32.3-7.1-6.8-15.4-12.3-22-19.8-7.3-8.4-11.1-19.1-18-27.8-15.5-19.6-42.9-33.1-62.9-47.8-13.1-9.6-21.7-24.1-34.8-34-1.9-1.5-4.4-2.5-6.4-4-15.1-11.7-27.9-27.9-31-47.1,12.2,10.3,20.8,24.4,33.9,33.8,7.8,5.7,17,9.3,24.9,14.9,5.9,4.1,10.9,9.6,16.6,13.8,11.9,8.7,25.6,12.2,37.4,20,16.9,11,27.9,29.8,44.9,41.8,14.7,10.4,32.1,15.8,46.3,26.3,9.2,6.8,16.6,16.6,25.5,24,6.1,5,12.9,9.2,19,14.1,29.2,23.7,35.9,56.7,61.4,82.6,14.5,14.8,29.8,24.6,50.3,28.9,102.7-88.2,107.6-171.6,107.6-171.6l.3-1.8c-3.5-9.8-7.9-19.9-9.9-30.1-3.2-16.5-.3-31.3-9.3-46.6-17.8-30.5-49-22.3-73.7-39.8-14-9.9-21.1-18-37.9-25.6-28.4-12.9-40.6-10.7-69.8-9-26.3,1.5-55.7-8.1-81.4-3-7.4,1.5-14.2,5.2-21.5,7.1-14.3,3.8-30.4-.4-45.3.5-12.3.8-24,5.1-36.3,5.1-6.9,0-13.8-1.6-20.6-2-8.4-.5-16.1,1.1-24.5-.5-9.5-1.9-18.4-6.3-27.6-9.4,4.7-1,9.8-3.1,14.4-4,7.7-1.4,15.7-.5,23.7-2.9,6.2-1.9,10.9-5.6,16.6-8.1,15.9-7.1,32.1-.9,48.8-3.5,20.8-3.3,29.8-17,53.1-12.5,16,3.2,28.2,9.4,45.4,9.1,22.2-.4,35.8-10.9,55.7-17.4,1-.4,9.9-2.1,9.6-3.2l-238.3-149.1v20.8c-1.2,25-14.1,49.4-10.5,74.8,1.3,9.4,10.5,27.6,4.9,35.9-1.7,2.5-4.5,5.2-6.3,7.7-9.2,13.2-9.8,25.5-24.7,35.5-.6.4-.8,1.3-1.6.4-.4-.5,3.4-11.6,4-13.1,4.5-12.3,8.7-18.3,9.4-32,.7-13.4,1.6-27.4,1.9-40.8.4-17.5-3.9-23.3-8.7-38.8-6.5-21.4,0-41.9-13-61.8-4.1-6.2-9.6-11.3-13.7-17.5-1.3-2-5.2-10.9-5.8-11.3l-146.8-91.9c-.6.6-.4,1.3-.4,2-.4,8.9,2.2,19.2,2.1,28.5,0,11.4-3.5,22-3,33.5.6,19.2,9.7,36.5,15.4,54.5,2.6,8.1,3.6,15,7.5,23.1,6.7,13.8,16.8,23.5,25.2,35.8,6.8,10.1,10.5,21,19,30.1,10.4,11.3,24.4,17.2,35.5,27.6,7.1,6.6,12.4,14.8,19.1,21.7,6.1,6.4,13.3,11.4,18.9,18.4,7.6,9.2,12.1,21.1,14.8,32.5-9-5.6-16.2-13.4-23.9-20.3-17.3-15.6-32.1-33.3-50-47.8-4.3-3.5-9.7-6.6-14-10.2-14.9-12.4-22.3-28.5-34.6-42.9-9.3-10.9-21.3-19.5-29.4-31.1-8.9-12.8-11.5-27-18.5-40.3-6.8-12.9-25.2-34-36.8-42.9-.6-.4-2-1.4-2.5-.6l-142.4,227.5c-.3.5.6,1.5,1.2,1.8,6.6,4.1,19.9,8.7,27.6,10.2,29,5.9,50.9-11.3,80.4-5.1,15.6,3.3,28.1,10.6,44.8,10.2,17.1-.4,30.5-9.8,48-8.8,17.8,1.1,31.9,8.5,51,8,11-.2,21.7-.5,32.7-.6,9.6-.1,19-1.8,28.5-.6,10.4,1.4,20.3,5.2,29.8,9.7-7.1,1.6-14.2,4-21.3,5.1-13.6,2.1-28.3-1.8-42,.4-9,1.5-16.3,5.9-25.8,6.7-13.5,1.1-25.9-4.2-40-2.1-11.3,1.7-19.5,8-29.8,11-19,5.6-38-4.3-57.7-2.3-16.9,1.8-28.2,10.9-43.6,15.1-9.4,2.5-19.2,1.8-28.6,3.6-26.7,5.2-34.6,29.2-56.9,41.3-16.6,9-36.8,6.4-50.7,20.8-6.1,6.4-10.2,14.3-15.7,21.2-5.5,6.9-12.6,12.6-17.8,19.7-22.3,30.8-12.2,65.4-12.2,100l17.1,30,11.1,11.9,8.2,5.6,7.7,6.6,8.3,4.7,10.3,5.1v.2s0,0,0,0Z"/>
      <path class="st3" d="M1469.1,599l-10.8-1.3-8.5-1-14.8-1.4-8.7-.3s0-1.2-8-1.3c-8,0-1.9-.2-8,0h-6.1c0,.1-5.6,1.2-5.6,1.2l-6.1,2.7c-13.9,4.4-26.2,12.5-39.8,17.7-17.3,6.7-34.5,7.6-45.7,24.9-9.7,14.8-23.2,37.3-28.1,54-4.6,16.2-4.4,34-14.3,48.4-4.9,7.1-12.3,12.8-17.4,19.6-13.3,17.8-15.1,43.7-23.1,64.3-6.2,16.1-19.8,29.2-25.9,44.8-13.3,33.7.7,71.3-22.4,103.3-.4.5-.6,1.6-1.4,1.3.8-17,2.9-34.7,1.7-51.6-.8-11.4-3.6-21.7-.9-33.3.7-3.2,2.2-6.3,2.9-9.4,2.4-10.1-.2-20.7,2.2-30.8,4.4-19,15.7-32.7,22.1-50.1,9.3-25.2,5-52.3,20.8-76.3,6.9-10.5,18.1-17.9,25.6-27.9,16-21.7,20.9-60.4,15.6-86.5-2.6-12.5-8.3-23.9-11.3-36.2-1.6-6.6-2.3-13.3-3.4-20h0c-68.7-82.9-185.7-57.3-185.7-57.3-10.5,21.2-21,43.4-16.1,67.6,3.5,17.7,15.9,30.9,19.9,48.8,2.9,12.7,2.9,24.5,8.3,36.8,5.5,12.6,16,20.8,21.4,32.7,10.3,23,2.9,46,7.5,69.7,5.3,27.3,26.4,50.1,29.5,76.7,1.1,9.6-.2,19.4,1.5,28.9,2.5,14.3,11.4,26.5,14.8,40.8,2.3,9.9,2.5,20.1,4.5,30.1,2.2,11.3,6.6,22.2,6.2,34-1.1,0-1.1-1-1.6-1.7-5.1-7.8-11.8-18.5-16.4-26.6-5.6-9.9-6-19.3-10-29.5-4.3-11-12.5-20-16.4-31.2-4.3-12.1-2.5-25.2-6.4-37.9-5.6-18.5-19.1-33.9-23.6-52.4-3.9-15.8-.6-31.8-5-48.4-5.7-21.3-20.4-34.8-23.7-57.5-1.4-9.9-1.3-17.9-4.3-27.8-5.2-16.6-15.7-27.5-22.8-42.6-10.2-21.6-15.6-40.8-36.6-55.8-29.1-20.8-42,9.3-62.2,24-10.6,7.7-24.1,11.5-35.3,18.3-16,9.5-25.6,22.8-42.7,31.4-14.6,7.3-21,9.8-32.8,22.1-19.3,19.9-34,39.6-18.4,67,8.1,14.2,19,33.2,31.4,43.7,6.3,5.4,13.6,9.7,19.6,15.6,6.3,6,10.9,13.5,16.9,19.8,9.4,9.9,20.5,16.4,30.9,24.9,10.8,8.7,19.1,18.1,31.6,25,8.7,4.8,18,7.9,26.3,13.5,9.2,6.2,15.7,15.6,24.5,22.3,20,15,50,21,73,30,15.2,5.9,27.2,17.7,42.3,24,2.3.9,4.9,1.3,7.2,2.2,17.6,7.4,34.2,19.8,42.1,37.6-14.4-6.8-26.4-18.2-41.4-24-9-3.5-18.8-4.7-27.9-8-6.8-2.5-13-6.5-19.6-9.1-13.7-5.3-27.8-5.3-41.3-9.7-19.2-6.3-34.6-21.7-54.2-28.8-16.9-6.2-35-7-51.5-13.5-10.7-4.2-20.3-11.8-30.8-16.6-7.2-3.3-14.8-5.5-22-8.8-34.3-15.4-49.2-45.6-80.5-64-17.8-10.5-35.1-16.1-56.1-15-76.6,111.6-59.9,193.5-59.9,193.5v1.8c6,8.6,12.9,17.2,17.4,26.6,7.3,15.1,8.3,30.1,21,42.7,25,24.9,53.1,9,81.4,19.6,16.1,6,25,12,43.2,15,30.7,5.2,41.9,0,69.7-9.2,25-8.2,56-6.4,79.5-18.1,6.8-3.4,12.4-8.7,19-12.3,12.9-7.3,29.5-7.4,43.7-12.1,11.7-3.9,21.9-11.1,33.7-14.2,6.7-1.7,13.7-2,20.4-3.4,8.2-1.7,15.3-5.2,23.8-5.8,9.7-.7,19.4,1.3,29.1,2-4.3,2.1-8.7,5.6-12.9,7.5-7.1,3.4-15.1,4.5-22.2,8.8-5.5,3.4-9.2,8.2-14,12.1-13.5,11-30.8,9.1-46.3,15.9-19.2,8.5-24.4,24.1-48.1,25.7-16.3,1-29.7-1.8-46.2,2.8-21.3,6.1-31.9,19.7-49.3,31.2-.8.6-9,4.6-8.4,5.6l268.6,82.9-5.4-20.1c-5.1-24.4,1-51.4-8.9-75-3.7-8.8-17.2-24-13.9-33.4,1-2.8,3-6.2,4.1-9.1,5.5-15.1,2.9-27.1,14.7-40.6.5-.5.4-1.4,1.4-.8.6.3-.3,12.1-.5,13.7-1.2,13-3.7,19.9-.9,33.4,2.7,13.2,5.5,26.9,8.7,39.9,4.1,17,9.8,21.5,18.3,35.3,11.8,19,10.7,40.5,28.5,56.3,5.5,4.9,12.2,8.4,17.7,13.3,1.8,1.6,7.9,9.2,8.5,9.4l165.5,51.1c.4-.8,0-1.3,0-2-1.9-8.7-7.1-17.9-9.4-27-2.8-11-2.3-22.2-5.7-33.2-5.5-18.4-18.8-32.7-28.9-48.7-4.6-7.2-7.3-13.6-13.2-20.4-10.1-11.7-22.2-18.4-33.5-28.2-9.2-8-15.6-17.5-26.1-24.2-13-8.2-28-10.4-41.4-17.5-8.6-4.5-15.8-11.1-24-16-7.6-4.6-15.8-7.7-23-12.9-9.7-6.9-17.1-17.3-22.7-27.6,10.1,3.1,19.1,8.7,28.3,13.5,20.7,10.7,39.5,24,60.6,33.3,5.1,2.3,11.1,3.9,16.2,6.3,17.6,8.2,28.9,21.8,44.5,32.6,11.8,8.1,25.5,13.3,36.4,22.5,11.9,10,18.1,23.2,28.3,34.2,9.9,10.7,33.1,26.4,46.6,32,.7.3,2.3.9,2.6,0l79.2-256.4c.2-.5-1-1.3-1.6-1.4-7.4-2.2-21.5-3.3-29.3-2.8-29.5,1.7-46.3,24-76.4,25.5-15.9.8-29.9-3-45.9,1.7-16.4,4.8-26.9,17.3-44.2,20.8-17.5,3.5-33,0-51.4,5.4-10.5,3.1-20.8,6.1-31.4,9-9.2,2.5-17.9,6.6-27.4,7.9-10.4,1.3-20.9.2-31.3-1.7,6.4-3.3,12.7-7.5,19.3-10.4,12.6-5.6,27.8-5.5,40.4-11.2,8.3-3.7,14.2-9.9,23.2-13.1,12.8-4.5,26.1-2.6,39.2-8.3,10.5-4.6,16.8-12.7,26-18.3,16.9-10.3,37.9-5.6,56.4-12.6,15.9-6.1,24.4-17.8,38.3-25.8,8.4-4.9,18.1-6.7,26.7-10.9,24.5-11.9,25.9-37.1,44.4-54.5,13.8-13,33.9-15.7,43.7-33.2,4.3-7.8,6.2-16.5,9.8-24.5s8.9-15.4,12.1-23.6c13.6-35.5-5-66.3-13.9-99.8l-24.2-24.6-13.8-8.7-9.4-3.3-9.1-4.4-9.3-2.4-11.3-2.3h0c0-.1,0-.2,0-.2Z"/>
    </g>
  </g>
</svg>